<svg width="383" height="121" viewBox="0 0 383 121" fill="none" xmlns="http://www.w3.org/2000/svg">
<g id="blueback">
<rect width="382" height="121" transform="translate(0.0744019)" fill="#007DC5"/>
<g id="logo">
<g id="metaResearch">
<path id="MetaR" d="M101.607 73.3817V33.4817H109.245L126.231 61.6397H122.184L138.885 33.4817H146.466L146.58 73.3817H137.916L137.859 46.7627H139.455L126.117 69.1637H121.956L108.333 46.7627H110.271V73.3817H101.607ZM168.928 73.8377C165.432 73.8377 162.354 73.1537 159.694 71.7857C157.072 70.4177 155.039 68.5557 153.595 66.1997C152.151 63.8057 151.429 61.0887 151.429 58.0487C151.429 54.9707 152.132 52.2537 153.538 49.8977C154.982 47.5037 156.939 45.6417 159.409 44.3117C161.879 42.9437 164.672 42.2597 167.788 42.2597C170.79 42.2597 173.488 42.9057 175.882 44.1977C178.314 45.4517 180.233 47.2757 181.639 49.6697C183.045 52.0257 183.748 54.8567 183.748 58.1627C183.748 58.5047 183.729 58.9037 183.691 59.3597C183.653 59.7777 183.615 60.1767 183.577 60.5567H158.668V55.3697H178.903L175.483 56.9087C175.483 55.3127 175.16 53.9257 174.514 52.7477C173.868 51.5697 172.975 50.6577 171.835 50.0117C170.695 49.3277 169.365 48.9857 167.845 48.9857C166.325 48.9857 164.976 49.3277 163.798 50.0117C162.658 50.6577 161.765 51.5887 161.119 52.8047C160.473 53.9827 160.15 55.3887 160.15 57.0227V58.3907C160.15 60.0627 160.511 61.5447 161.233 62.8367C161.993 64.0907 163.038 65.0597 164.368 65.7437C165.736 66.3897 167.332 66.7127 169.156 66.7127C170.79 66.7127 172.215 66.4657 173.431 65.9717C174.685 65.4777 175.825 64.7367 176.851 63.7487L181.582 68.8787C180.176 70.4747 178.409 71.7097 176.281 72.5837C174.153 73.4197 171.702 73.8377 168.928 73.8377ZM200.498 73.8377C196.888 73.8377 194.076 72.9257 192.062 71.1017C190.048 69.2397 189.041 66.4847 189.041 62.8367V35.9327H197.933V62.7227C197.933 64.0147 198.275 65.0217 198.959 65.7437C199.643 66.4277 200.574 66.7697 201.752 66.7697C203.158 66.7697 204.355 66.3897 205.343 65.6297L207.737 71.8997C206.825 72.5457 205.723 73.0397 204.431 73.3817C203.177 73.6857 201.866 73.8377 200.498 73.8377ZM184.31 50.2397V43.3997H205.571V50.2397H184.31ZM229.829 73.3817V67.3967L229.259 66.0857V55.3697C229.259 53.4697 228.67 51.9877 227.492 50.9237C226.352 49.8597 224.585 49.3277 222.191 49.3277C220.557 49.3277 218.942 49.5937 217.346 50.1257C215.788 50.6197 214.458 51.3037 213.356 52.1777L210.164 45.9647C211.836 44.7867 213.85 43.8747 216.206 43.2287C218.562 42.5827 220.956 42.2597 223.388 42.2597C228.062 42.2597 231.691 43.3617 234.275 45.5657C236.859 47.7697 238.151 51.2087 238.151 55.8827V73.3817H229.829ZM220.481 73.8377C218.087 73.8377 216.035 73.4387 214.325 72.6407C212.615 71.8047 211.304 70.6837 210.392 69.2777C209.48 67.8717 209.024 66.2947 209.024 64.5467C209.024 62.7227 209.461 61.1267 210.335 59.7587C211.247 58.3907 212.672 57.3267 214.61 56.5667C216.548 55.7687 219.075 55.3697 222.191 55.3697H230.342V60.5567H223.16C221.07 60.5567 219.626 60.8987 218.828 61.5827C218.068 62.2667 217.688 63.1217 217.688 64.1477C217.688 65.2877 218.125 66.1997 218.999 66.8837C219.911 67.5297 221.146 67.8527 222.704 67.8527C224.186 67.8527 225.516 67.5107 226.694 66.8267C227.872 66.1047 228.727 65.0597 229.259 63.6917L230.627 67.7957C229.981 69.7717 228.803 71.2727 227.093 72.2987C225.383 73.3247 223.179 73.8377 220.481 73.8377ZM245.115 73.3817V33.4817H262.386C265.958 33.4817 269.036 34.0707 271.62 35.2487C274.204 36.3887 276.199 38.0417 277.605 40.2077C279.011 42.3737 279.714 44.9577 279.714 47.9597C279.714 50.9237 279.011 53.4887 277.605 55.6547C276.199 57.7827 274.204 59.4167 271.62 60.5567C269.036 61.6967 265.958 62.2667 262.386 62.2667H250.245L254.349 58.2197V73.3817H245.115ZM270.48 73.3817L260.505 58.9037H270.366L280.455 73.3817H270.48ZM254.349 59.2457L250.245 54.9137H261.873C264.723 54.9137 266.851 54.3057 268.257 53.0897C269.663 51.8357 270.366 50.1257 270.366 47.9597C270.366 45.7557 269.663 44.0457 268.257 42.8297C266.851 41.6137 264.723 41.0057 261.873 41.0057H250.245L254.349 36.6167V59.2457Z" fill="white"/>
<path id="MetaResearch" d="M101.434 92.4243V79.8243H103.846L109.21 88.7163H107.932L113.206 79.8243H115.6L115.636 92.4243H112.9L112.882 84.0183H113.386L109.174 91.0923H107.86L103.558 84.0183H104.17V92.4243H101.434ZM123.414 92.5683C122.31 92.5683 121.338 92.3523 120.498 91.9203C119.67 91.4883 119.028 90.9003 118.572 90.1563C118.116 89.4003 117.888 88.5423 117.888 87.5823C117.888 86.6103 118.11 85.7523 118.554 85.0083C119.01 84.2523 119.628 83.6643 120.408 83.2443C121.188 82.8123 122.07 82.5963 123.054 82.5963C124.002 82.5963 124.854 82.8003 125.61 83.2083C126.378 83.6043 126.984 84.1803 127.428 84.9363C127.872 85.6803 128.094 86.5743 128.094 87.6183C128.094 87.7263 128.088 87.8523 128.076 87.9963C128.064 88.1283 128.052 88.2543 128.04 88.3743H120.174V86.7363H126.564L125.484 87.2223C125.484 86.7183 125.382 86.2803 125.178 85.9083C124.974 85.5363 124.692 85.2483 124.332 85.0443C123.972 84.8283 123.552 84.7203 123.072 84.7203C122.592 84.7203 122.166 84.8283 121.794 85.0443C121.434 85.2483 121.152 85.5423 120.948 85.9263C120.744 86.2983 120.642 86.7423 120.642 87.2583V87.6903C120.642 88.2183 120.756 88.6863 120.984 89.0943C121.224 89.4903 121.554 89.7963 121.974 90.0123C122.406 90.2163 122.91 90.3183 123.486 90.3183C124.002 90.3183 124.452 90.2403 124.836 90.0843C125.232 89.9283 125.592 89.6943 125.916 89.3823L127.41 91.0023C126.966 91.5063 126.408 91.8963 125.736 92.1723C125.064 92.4363 124.29 92.5683 123.414 92.5683ZM134.103 92.5683C132.963 92.5683 132.075 92.2803 131.439 91.7043C130.803 91.1163 130.485 90.2463 130.485 89.0943V80.5983H133.293V89.0583C133.293 89.4663 133.401 89.7843 133.617 90.0123C133.833 90.2283 134.127 90.3363 134.499 90.3363C134.943 90.3363 135.321 90.2163 135.633 89.9763L136.389 91.9563C136.101 92.1603 135.753 92.3163 135.345 92.4243C134.949 92.5203 134.535 92.5683 134.103 92.5683ZM128.991 85.1163V82.9563H135.705V85.1163H128.991ZM144.085 92.4243V90.5343L143.905 90.1203V86.7363C143.905 86.1363 143.719 85.6683 143.347 85.3323C142.987 84.9963 142.429 84.8283 141.673 84.8283C141.157 84.8283 140.647 84.9123 140.143 85.0803C139.651 85.2363 139.231 85.4523 138.883 85.7283L137.875 83.7663C138.403 83.3943 139.039 83.1063 139.783 82.9023C140.527 82.6983 141.283 82.5963 142.051 82.5963C143.527 82.5963 144.673 82.9443 145.489 83.6403C146.305 84.3363 146.713 85.4223 146.713 86.8983V92.4243H144.085ZM141.133 92.5683C140.377 92.5683 139.729 92.4423 139.189 92.1903C138.649 91.9263 138.235 91.5723 137.947 91.1283C137.659 90.6843 137.515 90.1863 137.515 89.6343C137.515 89.0583 137.653 88.5543 137.929 88.1223C138.217 87.6903 138.667 87.3543 139.279 87.1143C139.891 86.8623 140.689 86.7363 141.673 86.7363H144.247V88.3743H141.979C141.319 88.3743 140.863 88.4823 140.611 88.6983C140.371 88.9143 140.251 89.1843 140.251 89.5083C140.251 89.8683 140.389 90.1563 140.665 90.3723C140.953 90.5763 141.343 90.6783 141.835 90.6783C142.303 90.6783 142.723 90.5703 143.095 90.3543C143.467 90.1263 143.737 89.7963 143.905 89.3643L144.337 90.6603C144.133 91.2843 143.761 91.7583 143.221 92.0823C142.681 92.4063 141.985 92.5683 141.133 92.5683ZM149.633 92.4243V79.8243H155.087C156.215 79.8243 157.187 80.0103 158.003 80.3823C158.819 80.7423 159.449 81.2643 159.893 81.9483C160.337 82.6323 160.559 83.4483 160.559 84.3963C160.559 85.3323 160.337 86.1423 159.893 86.8263C159.449 87.4983 158.819 88.0143 158.003 88.3743C157.187 88.7343 156.215 88.9143 155.087 88.9143H151.253L152.549 87.6363V92.4243H149.633ZM157.643 92.4243L154.493 87.8523H157.607L160.793 92.4243H157.643ZM152.549 87.9603L151.253 86.5923H154.925C155.825 86.5923 156.497 86.4003 156.941 86.0163C157.385 85.6203 157.607 85.0803 157.607 84.3963C157.607 83.7003 157.385 83.1603 156.941 82.7763C156.497 82.3923 155.825 82.2003 154.925 82.2003H151.253L152.549 80.8143V87.9603ZM167.657 92.5683C166.553 92.5683 165.581 92.3523 164.741 91.9203C163.913 91.4883 163.271 90.9003 162.815 90.1563C162.359 89.4003 162.131 88.5423 162.131 87.5823C162.131 86.6103 162.353 85.7523 162.797 85.0083C163.253 84.2523 163.871 83.6643 164.651 83.2443C165.431 82.8123 166.313 82.5963 167.297 82.5963C168.245 82.5963 169.097 82.8003 169.853 83.2083C170.621 83.6043 171.227 84.1803 171.671 84.9363C172.115 85.6803 172.337 86.5743 172.337 87.6183C172.337 87.7263 172.331 87.8523 172.319 87.9963C172.307 88.1283 172.295 88.2543 172.283 88.3743H164.417V86.7363H170.807L169.727 87.2223C169.727 86.7183 169.625 86.2803 169.421 85.9083C169.217 85.5363 168.935 85.2483 168.575 85.0443C168.215 84.8283 167.795 84.7203 167.315 84.7203C166.835 84.7203 166.409 84.8283 166.037 85.0443C165.677 85.2483 165.395 85.5423 165.191 85.9263C164.987 86.2983 164.885 86.7423 164.885 87.2583V87.6903C164.885 88.2183 164.999 88.6863 165.227 89.0943C165.467 89.4903 165.797 89.7963 166.217 90.0123C166.649 90.2163 167.153 90.3183 167.729 90.3183C168.245 90.3183 168.695 90.2403 169.079 90.0843C169.475 89.9283 169.835 89.6943 170.159 89.3823L171.653 91.0023C171.209 91.5063 170.651 91.8963 169.979 92.1723C169.307 92.4363 168.533 92.5683 167.657 92.5683ZM177.644 92.5683C176.816 92.5683 176.018 92.4723 175.25 92.2803C174.494 92.0763 173.894 91.8243 173.45 91.5243L174.386 89.5083C174.83 89.7843 175.352 90.0123 175.952 90.1923C176.564 90.3603 177.164 90.4443 177.752 90.4443C178.4 90.4443 178.856 90.3663 179.12 90.2103C179.396 90.0543 179.534 89.8383 179.534 89.5623C179.534 89.3343 179.426 89.1663 179.21 89.0583C179.006 88.9383 178.73 88.8483 178.382 88.7883C178.034 88.7283 177.65 88.6683 177.23 88.6083C176.822 88.5483 176.408 88.4703 175.988 88.3743C175.568 88.2663 175.184 88.1103 174.836 87.9063C174.488 87.7023 174.206 87.4263 173.99 87.0783C173.786 86.7303 173.684 86.2803 173.684 85.7283C173.684 85.1163 173.858 84.5763 174.206 84.1083C174.566 83.6403 175.082 83.2743 175.754 83.0103C176.426 82.7343 177.23 82.5963 178.166 82.5963C178.826 82.5963 179.498 82.6683 180.182 82.8123C180.866 82.9563 181.436 83.1663 181.892 83.4423L180.956 85.4403C180.488 85.1643 180.014 84.9783 179.534 84.8823C179.066 84.7743 178.61 84.7203 178.166 84.7203C177.542 84.7203 177.086 84.8043 176.798 84.9723C176.51 85.1403 176.366 85.3563 176.366 85.6203C176.366 85.8603 176.468 86.0403 176.672 86.1603C176.888 86.2803 177.17 86.3763 177.518 86.4483C177.866 86.5203 178.244 86.5863 178.652 86.6463C179.072 86.6943 179.492 86.7723 179.912 86.8803C180.332 86.9883 180.71 87.1443 181.046 87.3483C181.394 87.5403 181.676 87.8103 181.892 88.1583C182.108 88.4943 182.216 88.9383 182.216 89.4903C182.216 90.0903 182.036 90.6243 181.676 91.0923C181.316 91.5483 180.794 91.9083 180.11 92.1723C179.438 92.4363 178.616 92.5683 177.644 92.5683ZM188.935 92.5683C187.831 92.5683 186.859 92.3523 186.019 91.9203C185.191 91.4883 184.549 90.9003 184.093 90.1563C183.637 89.4003 183.409 88.5423 183.409 87.5823C183.409 86.6103 183.631 85.7523 184.075 85.0083C184.531 84.2523 185.149 83.6643 185.929 83.2443C186.709 82.8123 187.591 82.5963 188.575 82.5963C189.523 82.5963 190.375 82.8003 191.131 83.2083C191.899 83.6043 192.505 84.1803 192.949 84.9363C193.393 85.6803 193.615 86.5743 193.615 87.6183C193.615 87.7263 193.609 87.8523 193.597 87.9963C193.585 88.1283 193.573 88.2543 193.561 88.3743H185.695V86.7363H192.085L191.005 87.2223C191.005 86.7183 190.903 86.2803 190.699 85.9083C190.495 85.5363 190.213 85.2483 189.853 85.0443C189.493 84.8283 189.073 84.7203 188.593 84.7203C188.113 84.7203 187.687 84.8283 187.315 85.0443C186.955 85.2483 186.673 85.5423 186.469 85.9263C186.265 86.2983 186.163 86.7423 186.163 87.2583V87.6903C186.163 88.2183 186.277 88.6863 186.505 89.0943C186.745 89.4903 187.075 89.7963 187.495 90.0123C187.927 90.2163 188.431 90.3183 189.007 90.3183C189.523 90.3183 189.973 90.2403 190.357 90.0843C190.753 89.9283 191.113 89.6943 191.437 89.3823L192.931 91.0023C192.487 91.5063 191.929 91.8963 191.257 92.1723C190.585 92.4363 189.811 92.5683 188.935 92.5683ZM201.341 92.4243V90.5343L201.161 90.1203V86.7363C201.161 86.1363 200.975 85.6683 200.603 85.3323C200.243 84.9963 199.685 84.8283 198.929 84.8283C198.413 84.8283 197.903 84.9123 197.399 85.0803C196.907 85.2363 196.487 85.4523 196.139 85.7283L195.131 83.7663C195.659 83.3943 196.295 83.1063 197.039 82.9023C197.783 82.6983 198.539 82.5963 199.307 82.5963C200.783 82.5963 201.929 82.9443 202.745 83.6403C203.561 84.3363 203.969 85.4223 203.969 86.8983V92.4243H201.341ZM198.389 92.5683C197.633 92.5683 196.985 92.4423 196.445 92.1903C195.905 91.9263 195.491 91.5723 195.203 91.1283C194.915 90.6843 194.771 90.1863 194.771 89.6343C194.771 89.0583 194.909 88.5543 195.185 88.1223C195.473 87.6903 195.923 87.3543 196.535 87.1143C197.147 86.8623 197.945 86.7363 198.929 86.7363H201.503V88.3743H199.235C198.575 88.3743 198.119 88.4823 197.867 88.6983C197.627 88.9143 197.507 89.1843 197.507 89.5083C197.507 89.8683 197.645 90.1563 197.921 90.3723C198.209 90.5763 198.599 90.6783 199.091 90.6783C199.559 90.6783 199.979 90.5703 200.351 90.3543C200.723 90.1263 200.993 89.7963 201.161 89.3643L201.593 90.6603C201.389 91.2843 201.017 91.7583 200.477 92.0823C199.937 92.4063 199.241 92.5683 198.389 92.5683ZM206.69 92.4243V82.7403H209.372V85.4763L208.994 84.6843C209.282 84.0003 209.744 83.4843 210.38 83.1363C211.016 82.7763 211.79 82.5963 212.702 82.5963V85.1883C212.582 85.1763 212.474 85.1703 212.378 85.1703C212.282 85.1583 212.18 85.1523 212.072 85.1523C211.304 85.1523 210.68 85.3743 210.2 85.8183C209.732 86.2503 209.498 86.9283 209.498 87.8523V92.4243H206.69ZM219.161 92.5683C218.117 92.5683 217.187 92.3583 216.371 91.9383C215.555 91.5063 214.913 90.9123 214.445 90.1563C213.989 89.4003 213.761 88.5423 213.761 87.5823C213.761 86.6103 213.989 85.7523 214.445 85.0083C214.913 84.2523 215.555 83.6643 216.371 83.2443C217.187 82.8123 218.117 82.5963 219.161 82.5963C220.181 82.5963 221.069 82.8123 221.825 83.2443C222.581 83.6643 223.139 84.2703 223.499 85.0623L221.321 86.2323C221.069 85.7763 220.751 85.4403 220.367 85.2243C219.995 85.0083 219.587 84.9003 219.143 84.9003C218.663 84.9003 218.231 85.0083 217.847 85.2243C217.463 85.4403 217.157 85.7463 216.929 86.1423C216.713 86.5383 216.605 87.0183 216.605 87.5823C216.605 88.1463 216.713 88.6263 216.929 89.0223C217.157 89.4183 217.463 89.7243 217.847 89.9403C218.231 90.1563 218.663 90.2643 219.143 90.2643C219.587 90.2643 219.995 90.1623 220.367 89.9583C220.751 89.7423 221.069 89.4003 221.321 88.9323L223.499 90.1203C223.139 90.9003 222.581 91.5063 221.825 91.9383C221.069 92.3583 220.181 92.5683 219.161 92.5683ZM231.129 82.5963C231.897 82.5963 232.581 82.7523 233.181 83.0643C233.793 83.3643 234.273 83.8323 234.621 84.4683C234.969 85.0923 235.143 85.8963 235.143 86.8803V92.4243H232.335V87.3123C232.335 86.5323 232.161 85.9563 231.813 85.5843C231.477 85.2123 230.997 85.0263 230.373 85.0263C229.929 85.0263 229.527 85.1223 229.167 85.3143C228.819 85.4943 228.543 85.7763 228.339 86.1603C228.147 86.5443 228.051 87.0363 228.051 87.6363V92.4243H225.243V79.0683H228.051V85.4223L227.421 84.6123C227.769 83.9643 228.267 83.4663 228.915 83.1183C229.563 82.7703 230.301 82.5963 231.129 82.5963Z" fill="white"/>
</g>
<g id="openReview">
<path id="Open Review" d="M248.24 93.039C247.244 93.039 246.32 92.877 245.468 92.553C244.628 92.229 243.896 91.773 243.272 91.185C242.66 90.597 242.18 89.907 241.832 89.115C241.496 88.323 241.328 87.459 241.328 86.523C241.328 85.587 241.496 84.723 241.832 83.931C242.18 83.139 242.666 82.449 243.29 81.861C243.914 81.273 244.646 80.817 245.486 80.493C246.326 80.169 247.238 80.007 248.222 80.007C249.218 80.007 250.13 80.169 250.958 80.493C251.798 80.817 252.524 81.273 253.136 81.861C253.76 82.449 254.246 83.139 254.594 83.931C254.942 84.711 255.116 85.575 255.116 86.523C255.116 87.459 254.942 88.329 254.594 89.133C254.246 89.925 253.76 90.615 253.136 91.203C252.524 91.779 251.798 92.229 250.958 92.553C250.13 92.877 249.224 93.039 248.24 93.039ZM248.222 90.555C248.786 90.555 249.302 90.459 249.77 90.267C250.25 90.075 250.67 89.799 251.03 89.439C251.39 89.079 251.666 88.653 251.858 88.161C252.062 87.669 252.164 87.123 252.164 86.523C252.164 85.923 252.062 85.377 251.858 84.885C251.666 84.393 251.39 83.967 251.03 83.607C250.682 83.247 250.268 82.971 249.788 82.779C249.308 82.587 248.786 82.491 248.222 82.491C247.658 82.491 247.136 82.587 246.656 82.779C246.188 82.971 245.774 83.247 245.414 83.607C245.054 83.967 244.772 84.393 244.568 84.885C244.376 85.377 244.28 85.923 244.28 86.523C244.28 87.111 244.376 87.657 244.568 88.161C244.772 88.653 245.048 89.079 245.396 89.439C245.756 89.799 246.176 90.075 246.656 90.267C247.136 90.459 247.658 90.555 248.222 90.555ZM263.013 92.967C262.197 92.967 261.483 92.787 260.871 92.427C260.259 92.067 259.779 91.521 259.431 90.789C259.095 90.045 258.927 89.109 258.927 87.981C258.927 86.841 259.089 85.905 259.413 85.173C259.737 84.441 260.205 83.895 260.817 83.535C261.429 83.175 262.161 82.995 263.013 82.995C263.925 82.995 264.741 83.205 265.461 83.625C266.193 84.033 266.769 84.609 267.189 85.353C267.621 86.097 267.837 86.973 267.837 87.981C267.837 89.001 267.621 89.883 267.189 90.627C266.769 91.371 266.193 91.947 265.461 92.355C264.741 92.763 263.925 92.967 263.013 92.967ZM257.289 96.315V83.139H259.971V85.119L259.917 87.999L260.097 90.861V96.315H257.289ZM262.527 90.663C262.995 90.663 263.409 90.555 263.769 90.339C264.141 90.123 264.435 89.817 264.651 89.421C264.879 89.013 264.993 88.533 264.993 87.981C264.993 87.417 264.879 86.937 264.651 86.541C264.435 86.145 264.141 85.839 263.769 85.623C263.409 85.407 262.995 85.299 262.527 85.299C262.059 85.299 261.639 85.407 261.267 85.623C260.895 85.839 260.601 86.145 260.385 86.541C260.169 86.937 260.061 87.417 260.061 87.981C260.061 88.533 260.169 89.013 260.385 89.421C260.601 89.817 260.895 90.123 261.267 90.339C261.639 90.555 262.059 90.663 262.527 90.663ZM274.703 92.967C273.599 92.967 272.627 92.751 271.787 92.319C270.959 91.887 270.317 91.299 269.861 90.555C269.405 89.799 269.177 88.941 269.177 87.981C269.177 87.009 269.399 86.151 269.843 85.407C270.299 84.651 270.917 84.063 271.697 83.643C272.477 83.211 273.359 82.995 274.343 82.995C275.291 82.995 276.143 83.199 276.899 83.607C277.667 84.003 278.273 84.579 278.717 85.335C279.161 86.079 279.383 86.973 279.383 88.017C279.383 88.125 279.377 88.251 279.365 88.395C279.353 88.527 279.341 88.653 279.329 88.773H271.463V87.135H277.853L276.773 87.621C276.773 87.117 276.671 86.679 276.467 86.307C276.263 85.935 275.981 85.647 275.621 85.443C275.261 85.227 274.841 85.119 274.361 85.119C273.881 85.119 273.455 85.227 273.083 85.443C272.723 85.647 272.441 85.941 272.237 86.325C272.033 86.697 271.931 87.141 271.931 87.657V88.089C271.931 88.617 272.045 89.085 272.273 89.493C272.513 89.889 272.843 90.195 273.263 90.411C273.695 90.615 274.199 90.717 274.775 90.717C275.291 90.717 275.741 90.639 276.125 90.483C276.521 90.327 276.881 90.093 277.205 89.781L278.699 91.401C278.255 91.905 277.697 92.295 277.025 92.571C276.353 92.835 275.579 92.967 274.703 92.967ZM287.319 82.995C288.087 82.995 288.771 83.151 289.371 83.463C289.983 83.763 290.463 84.231 290.811 84.867C291.159 85.491 291.333 86.295 291.333 87.279V92.823H288.525V87.711C288.525 86.931 288.351 86.355 288.003 85.983C287.667 85.611 287.187 85.425 286.563 85.425C286.119 85.425 285.717 85.521 285.357 85.713C285.009 85.893 284.733 86.175 284.529 86.559C284.337 86.943 284.241 87.435 284.241 88.035V92.823H281.433V83.139H284.115V85.821L283.611 85.011C283.959 84.363 284.457 83.865 285.105 83.517C285.753 83.169 286.491 82.995 287.319 82.995ZM299.534 92.823V80.223H304.988C306.116 80.223 307.088 80.409 307.904 80.781C308.72 81.141 309.35 81.663 309.794 82.347C310.238 83.031 310.46 83.847 310.46 84.795C310.46 85.731 310.238 86.541 309.794 87.225C309.35 87.897 308.72 88.413 307.904 88.773C307.088 89.133 306.116 89.313 304.988 89.313H301.154L302.45 88.035V92.823H299.534ZM307.544 92.823L304.394 88.251H307.508L310.694 92.823H307.544ZM302.45 88.359L301.154 86.991H304.826C305.726 86.991 306.398 86.799 306.842 86.415C307.286 86.019 307.508 85.479 307.508 84.795C307.508 84.099 307.286 83.559 306.842 83.175C306.398 82.791 305.726 82.599 304.826 82.599H301.154L302.45 81.213V88.359ZM317.558 92.967C316.454 92.967 315.482 92.751 314.642 92.319C313.814 91.887 313.172 91.299 312.716 90.555C312.26 89.799 312.032 88.941 312.032 87.981C312.032 87.009 312.254 86.151 312.698 85.407C313.154 84.651 313.772 84.063 314.552 83.643C315.332 83.211 316.214 82.995 317.198 82.995C318.146 82.995 318.998 83.199 319.754 83.607C320.522 84.003 321.128 84.579 321.572 85.335C322.016 86.079 322.238 86.973 322.238 88.017C322.238 88.125 322.232 88.251 322.22 88.395C322.208 88.527 322.196 88.653 322.184 88.773H314.318V87.135H320.708L319.628 87.621C319.628 87.117 319.526 86.679 319.322 86.307C319.118 85.935 318.836 85.647 318.476 85.443C318.116 85.227 317.696 85.119 317.216 85.119C316.736 85.119 316.31 85.227 315.938 85.443C315.578 85.647 315.296 85.941 315.092 86.325C314.888 86.697 314.786 87.141 314.786 87.657V88.089C314.786 88.617 314.9 89.085 315.128 89.493C315.368 89.889 315.698 90.195 316.118 90.411C316.55 90.615 317.054 90.717 317.63 90.717C318.146 90.717 318.596 90.639 318.98 90.483C319.376 90.327 319.736 90.093 320.06 89.781L321.554 91.401C321.11 91.905 320.552 92.295 319.88 92.571C319.208 92.835 318.434 92.967 317.558 92.967ZM326.74 92.823L322.672 83.139H325.57L328.954 91.473H327.514L331.024 83.139H333.724L329.638 92.823H326.74ZM335.049 92.823V83.139H337.857V92.823H335.049ZM336.453 81.789C335.937 81.789 335.517 81.639 335.193 81.339C334.869 81.039 334.707 80.667 334.707 80.223C334.707 79.779 334.869 79.407 335.193 79.107C335.517 78.807 335.937 78.657 336.453 78.657C336.969 78.657 337.389 78.801 337.713 79.089C338.037 79.365 338.199 79.725 338.199 80.169C338.199 80.637 338.037 81.027 337.713 81.339C337.401 81.639 336.981 81.789 336.453 81.789ZM345.449 92.967C344.345 92.967 343.373 92.751 342.533 92.319C341.705 91.887 341.063 91.299 340.607 90.555C340.151 89.799 339.923 88.941 339.923 87.981C339.923 87.009 340.145 86.151 340.589 85.407C341.045 84.651 341.663 84.063 342.443 83.643C343.223 83.211 344.105 82.995 345.089 82.995C346.037 82.995 346.889 83.199 347.645 83.607C348.413 84.003 349.019 84.579 349.463 85.335C349.907 86.079 350.129 86.973 350.129 88.017C350.129 88.125 350.123 88.251 350.111 88.395C350.099 88.527 350.087 88.653 350.075 88.773H342.209V87.135H348.599L347.519 87.621C347.519 87.117 347.417 86.679 347.213 86.307C347.009 85.935 346.727 85.647 346.367 85.443C346.007 85.227 345.587 85.119 345.107 85.119C344.627 85.119 344.201 85.227 343.829 85.443C343.469 85.647 343.187 85.941 342.983 86.325C342.779 86.697 342.677 87.141 342.677 87.657V88.089C342.677 88.617 342.791 89.085 343.019 89.493C343.259 89.889 343.589 90.195 344.009 90.411C344.441 90.615 344.945 90.717 345.521 90.717C346.037 90.717 346.487 90.639 346.871 90.483C347.267 90.327 347.627 90.093 347.951 89.781L349.445 91.401C349.001 91.905 348.443 92.295 347.771 92.571C347.099 92.835 346.325 92.967 345.449 92.967ZM354.217 92.823L350.725 83.139H353.371L356.269 91.473H355.009L358.033 83.139H360.409L363.343 91.473H362.083L365.071 83.139H367.555L364.045 92.823H361.327L358.753 85.677H359.581L356.917 92.823H354.217Z" fill="#88D4FF"/>
<path id="OR" d="M306.008 74.0657C302.854 74.0657 299.928 73.5527 297.23 72.5267C294.57 71.5007 292.252 70.0567 290.276 68.1947C288.338 66.3327 286.818 64.1477 285.716 61.6397C284.652 59.1317 284.12 56.3957 284.12 53.4317C284.12 50.4677 284.652 47.7317 285.716 45.2237C286.818 42.7157 288.357 40.5307 290.333 38.6687C292.309 36.8067 294.627 35.3627 297.287 34.3367C299.947 33.3107 302.835 32.7977 305.951 32.7977C309.105 32.7977 311.993 33.3107 314.615 34.3367C317.275 35.3627 319.574 36.8067 321.512 38.6687C323.488 40.5307 325.027 42.7157 326.129 45.2237C327.231 47.6937 327.782 50.4297 327.782 53.4317C327.782 56.3957 327.231 59.1507 326.129 61.6967C325.027 64.2047 323.488 66.3897 321.512 68.2517C319.574 70.0757 317.275 71.5007 314.615 72.5267C311.993 73.5527 309.124 74.0657 306.008 74.0657ZM305.951 66.1997C307.737 66.1997 309.371 65.8957 310.853 65.2877C312.373 64.6797 313.703 63.8057 314.843 62.6657C315.983 61.5257 316.857 60.1767 317.465 58.6187C318.111 57.0607 318.434 55.3317 318.434 53.4317C318.434 51.5317 318.111 49.8027 317.465 48.2447C316.857 46.6867 315.983 45.3377 314.843 44.1977C313.741 43.0577 312.43 42.1837 310.91 41.5757C309.39 40.9677 307.737 40.6637 305.951 40.6637C304.165 40.6637 302.512 40.9677 300.992 41.5757C299.51 42.1837 298.199 43.0577 297.059 44.1977C295.919 45.3377 295.026 46.6867 294.38 48.2447C293.772 49.8027 293.468 51.5317 293.468 53.4317C293.468 55.2937 293.772 57.0227 294.38 58.6187C295.026 60.1767 295.9 61.5257 297.002 62.6657C298.142 63.8057 299.472 64.6797 300.992 65.2877C302.512 65.8957 304.165 66.1997 305.951 66.1997ZM332.442 73.3817V33.4817H349.713C353.285 33.4817 356.363 34.0707 358.947 35.2487C361.531 36.3887 363.526 38.0417 364.932 40.2077C366.338 42.3737 367.041 44.9577 367.041 47.9597C367.041 50.9237 366.338 53.4887 364.932 55.6547C363.526 57.7827 361.531 59.4167 358.947 60.5567C356.363 61.6967 353.285 62.2667 349.713 62.2667H337.572L341.676 58.2197V73.3817H332.442ZM357.807 73.3817L347.832 58.9037H357.693L367.782 73.3817H357.807ZM341.676 59.2457L337.572 54.9137H349.2C352.05 54.9137 354.178 54.3057 355.584 53.0897C356.99 51.8357 357.693 50.1257 357.693 47.9597C357.693 45.7557 356.99 44.0457 355.584 42.8297C354.178 41.6137 352.05 41.0057 349.2 41.0057H337.572L341.676 36.6167V59.2457Z" fill="#88D4FF"/>
</g>
<g id="metaror">
<g id="circle-bottom">
<g id="pattern">
<path d="M53.8807 75.2769C52.7489 74.0689 51.7689 72.717 50.9708 71.2518L54.1134 48.3108C55.2687 47.1192 56.5744 46.0744 57.9999 45.2068L53.8807 75.2769Z" fill="#D6E6EE"/>
<path d="M57.5737 78.3581C56.4494 77.6335 55.4043 76.7969 54.4541 75.8638L58.7101 44.7947C59.8684 44.1548 61.0985 43.6291 62.3854 43.2327L57.5737 78.3581Z" fill="#D6E6EE"/>
<path d="M61.426 80.2759C60.2896 79.8598 59.2027 79.3411 58.1764 78.7312L63.066 43.0365C64.2095 42.7295 65.3944 42.5236 66.6105 42.429L61.426 80.2759Z" fill="#D6E6EE"/>
<path d="M65.4047 81.2714C64.2511 81.1094 63.1299 80.8467 62.0501 80.4925L67.2698 42.3888C67.5609 42.3759 67.8537 42.3694 68.148 42.3694C69.0167 42.3694 69.8721 42.4261 70.7109 42.5359L65.4047 81.2714Z" fill="#D6E6EE"/>
<path d="M69.4999 81.4164C69.0532 81.4469 68.6024 81.4624 68.148 81.4624C67.4384 81.4624 66.7376 81.4246 66.0476 81.3509L71.3517 42.6307C72.5032 42.8205 73.6207 43.111 74.6949 43.4928L69.4999 81.4164Z" fill="#D6E6EE"/>
<path d="M73.719 80.657C72.5735 80.997 71.3842 81.2349 70.1614 81.36L75.3168 43.7258C76.4514 44.1733 77.5341 44.724 78.5533 45.3661L73.719 80.657Z" fill="#D6E6EE"/>
<path d="M78.0959 78.7452C76.9365 79.432 75.6999 80.0024 74.4024 80.4404L79.1532 45.7596C80.2767 46.5264 81.3161 47.4073 82.2547 48.3857L78.0959 78.7452Z" fill="#D6E6EE"/>
<path d="M82.7338 74.9285C81.5829 76.2176 80.2637 77.3532 78.8106 78.3008L82.8237 49.0048C83.9605 50.2959 84.9296 51.7383 85.6969 53.2978L82.7338 74.9285Z" fill="#D6E6EE"/>
<path d="M86.1991 54.4045C87.1625 56.717 87.6945 59.2543 87.6945 61.9159C87.6945 66.4761 86.1329 70.6715 83.5152 73.9967L86.1991 54.4045Z" fill="#D6E6EE"/>
<path d="M53.3445 49.1512L50.456 70.2371C49.2665 67.7124 48.6014 64.8918 48.6014 61.9159C48.6014 57.0371 50.3888 52.5759 53.3445 49.1512Z" fill="#D6E6EE"/>
</g>
<path id="circle" fill-rule="evenodd" clip-rule="evenodd" d="M46.5439 61.9159C46.5439 49.9842 56.2163 40.3118 68.1479 40.3118C80.0795 40.3118 89.752 49.9842 89.752 61.9159C89.752 73.8475 80.0795 83.5199 68.1479 83.5199C56.2163 83.5199 46.5439 73.8475 46.5439 61.9159ZM68.1479 42.3694C57.3526 42.3694 48.6014 51.1206 48.6014 61.9159C48.6014 72.7112 57.3526 81.4624 68.1479 81.4624C78.9432 81.4624 87.6944 72.7112 87.6944 61.9159C87.6944 51.1206 78.9432 42.3694 68.1479 42.3694Z" fill="#7AB9DC"/>
</g>
<g id="circle-middle">
<g id="pattern_2">
<path d="M44.8289 64.6274C43.9436 64.79 43.0799 65.0145 42.2425 65.2961C42.4719 65.733 42.93 66.0309 43.4576 66.0309C44.2152 66.0309 44.8293 65.4168 44.8293 64.6592L44.8289 64.6274Z" fill="#A0CBE4"/>
<path d="M35.8852 68.942C35.2224 69.5186 34.6002 70.1408 34.0235 70.8037C34.2564 71.2292 34.7083 71.5177 35.2275 71.5177C35.9851 71.5177 36.5992 70.9036 36.5992 70.146C36.5992 69.6267 36.3107 69.1749 35.8852 68.942Z" fill="#A0CBE4"/>
<path d="M29.7088 79.7482C29.5469 80.6293 29.4463 81.5319 29.4116 82.4514C29.517 82.4774 29.6273 82.4912 29.7408 82.4912C30.4984 82.4912 31.1125 81.8771 31.1125 81.1195C31.1125 80.3619 30.4984 79.7478 29.7408 79.7478L29.7088 79.7482Z" fill="#A0CBE4"/>
<path d="M36.6915 98.0753C37.0867 98.3826 37.4945 98.6746 37.914 98.9502C37.9328 98.951 37.9518 98.9514 37.9709 98.9514C38.7285 98.9514 39.3426 98.3373 39.3426 97.5797C39.3426 96.8221 38.7285 96.208 37.9709 96.208C37.2133 96.208 36.5992 96.8221 36.5992 97.5797C36.5992 97.7545 36.6319 97.9216 36.6915 98.0753Z" fill="#A0CBE4"/>
<path d="M45.571 101.848C46.0629 101.918 46.561 101.969 47.0644 102C46.8286 101.809 46.5282 101.695 46.201 101.695C45.9739 101.695 45.7597 101.75 45.571 101.848Z" fill="#A0CBE4"/>
<path d="M51.1052 101.824C51.3459 101.788 51.5852 101.747 51.8229 101.701C51.7785 101.697 51.7334 101.695 51.6877 101.695C51.4794 101.695 51.282 101.741 51.1052 101.824Z" fill="#A0CBE4"/>
<path d="M59.0535 98.6449C59.7888 98.1308 60.4857 97.5656 61.1391 96.9544C60.9117 96.5113 60.4502 96.208 59.9179 96.208C59.1603 96.208 58.5462 96.8221 58.5462 97.5797C58.5462 98.0096 58.744 98.3934 59.0535 98.6449Z" fill="#A0CBE4"/>
<path d="M67.082 81.9828C67.0506 81.4794 66.9994 80.9814 66.9292 80.4895C66.8315 80.6781 66.7763 80.8924 66.7763 81.1195C66.7763 81.4467 66.8908 81.7471 67.082 81.9828Z" fill="#A0CBE4"/>
<path d="M66.0327 76.8525C65.7243 75.9861 65.3544 75.1488 64.9283 74.346C64.4055 74.5396 64.0329 75.0426 64.0329 75.6327C64.0329 76.3903 64.647 77.0044 65.4046 77.0044C65.6309 77.0044 65.8445 76.9496 66.0327 76.8525Z" fill="#A0CBE4"/>
<path d="M63.0423 71.464C62.5306 70.8191 61.9777 70.2085 61.3874 69.6361C61.3243 69.7937 61.2895 69.9658 61.2895 70.146C61.2895 70.9036 61.9036 71.5177 62.6612 71.5177C62.7935 71.5177 62.9213 71.499 63.0423 71.464Z" fill="#A0CBE4"/>
<path d="M42.0859 70.146C42.0859 70.9036 41.4718 71.5177 40.7143 71.5177C39.9567 71.5177 39.3426 70.9036 39.3426 70.146C39.3426 69.3884 39.9567 68.7743 40.7143 68.7743C41.4718 68.7743 42.0859 69.3884 42.0859 70.146Z" fill="#A0CBE4"/>
<path d="M47.5727 70.146C47.5727 70.9036 46.9586 71.5177 46.201 71.5177C45.4434 71.5177 44.8293 70.9036 44.8293 70.146C44.8293 69.3884 45.4434 68.7743 46.201 68.7743C46.9586 68.7743 47.5727 69.3884 47.5727 70.146Z" fill="#A0CBE4"/>
<path d="M57.1745 71.5177C57.9321 71.5177 58.5462 70.9036 58.5462 70.146C58.5462 69.3884 57.9321 68.7743 57.1745 68.7743C56.4169 68.7743 55.8028 69.3884 55.8028 70.146C55.8028 70.9036 56.4169 71.5177 57.1745 71.5177Z" fill="#A0CBE4"/>
<path d="M33.8558 75.6327C33.8558 76.3903 33.2417 77.0044 32.4842 77.0044C31.7266 77.0044 31.1125 76.3903 31.1125 75.6327C31.1125 74.8751 31.7266 74.261 32.4842 74.261C33.2417 74.261 33.8558 74.8751 33.8558 75.6327Z" fill="#A0CBE4"/>
<path d="M37.9709 77.0044C38.7285 77.0044 39.3426 76.3903 39.3426 75.6327C39.3426 74.8751 38.7285 74.261 37.9709 74.261C37.2133 74.261 36.5992 74.8751 36.5992 75.6327C36.5992 76.3903 37.2133 77.0044 37.9709 77.0044Z" fill="#A0CBE4"/>
<path d="M44.8293 75.6327C44.8293 76.3903 44.2152 77.0044 43.4576 77.0044C42.7001 77.0044 42.0859 76.3903 42.0859 75.6327C42.0859 74.8751 42.7001 74.261 43.4576 74.261C44.2152 74.261 44.8293 74.8751 44.8293 75.6327Z" fill="#A0CBE4"/>
<path d="M48.9444 77.0044C49.702 77.0044 50.3161 76.3903 50.3161 75.6327C50.3161 74.8751 49.702 74.261 48.9444 74.261C48.1868 74.261 47.5727 74.8751 47.5727 75.6327C47.5727 76.3903 48.1868 77.0044 48.9444 77.0044Z" fill="#A0CBE4"/>
<path d="M55.8028 75.6327C55.8028 76.3903 55.1887 77.0044 54.4311 77.0044C53.6735 77.0044 53.0594 76.3903 53.0594 75.6327C53.0594 74.8751 53.6735 74.261 54.4311 74.261C55.1887 74.261 55.8028 74.8751 55.8028 75.6327Z" fill="#A0CBE4"/>
<path d="M59.9179 77.0044C60.6754 77.0044 61.2895 76.3903 61.2895 75.6327C61.2895 74.8751 60.6754 74.261 59.9179 74.261C59.1603 74.261 58.5462 74.8751 58.5462 75.6327C58.5462 76.3903 59.1603 77.0044 59.9179 77.0044Z" fill="#A0CBE4"/>
<path d="M36.5992 81.1195C36.5992 81.8771 35.9851 82.4912 35.2275 82.4912C34.4699 82.4912 33.8558 81.8771 33.8558 81.1195C33.8558 80.3619 34.4699 79.7478 35.2275 79.7478C35.9851 79.7478 36.5992 80.3619 36.5992 81.1195Z" fill="#A0CBE4"/>
<path d="M40.7143 82.4912C41.4718 82.4912 42.0859 81.8771 42.0859 81.1195C42.0859 80.3619 41.4718 79.7478 40.7143 79.7478C39.9567 79.7478 39.3426 80.3619 39.3426 81.1195C39.3426 81.8771 39.9567 82.4912 40.7143 82.4912Z" fill="#A0CBE4"/>
<path d="M47.5727 81.1195C47.5727 81.8771 46.9586 82.4912 46.201 82.4912C45.4434 82.4912 44.8293 81.8771 44.8293 81.1195C44.8293 80.3619 45.4434 79.7478 46.201 79.7478C46.9586 79.7478 47.5727 80.3619 47.5727 81.1195Z" fill="#A0CBE4"/>
<path d="M51.6877 82.4912C52.4453 82.4912 53.0594 81.8771 53.0594 81.1195C53.0594 80.3619 52.4453 79.7478 51.6877 79.7478C50.9302 79.7478 50.3161 80.3619 50.3161 81.1195C50.3161 81.8771 50.9302 82.4912 51.6877 82.4912Z" fill="#A0CBE4"/>
<path d="M58.5462 81.1195C58.5462 81.8771 57.9321 82.4912 57.1745 82.4912C56.4169 82.4912 55.8028 81.8771 55.8028 81.1195C55.8028 80.3619 56.4169 79.7478 57.1745 79.7478C57.9321 79.7478 58.5462 80.3619 58.5462 81.1195Z" fill="#A0CBE4"/>
<path d="M62.6612 82.4912C63.4188 82.4912 64.0329 81.8771 64.0329 81.1195C64.0329 80.3619 63.4188 79.7478 62.6612 79.7478C61.9036 79.7478 61.2895 80.3619 61.2895 81.1195C61.2895 81.8771 61.9036 82.4912 62.6612 82.4912Z" fill="#A0CBE4"/>
<path d="M33.8558 86.6062C33.8558 87.3638 33.2417 87.9779 32.4842 87.9779C31.7266 87.9779 31.1125 87.3638 31.1125 86.6062C31.1125 85.8486 31.7266 85.2345 32.4842 85.2345C33.2417 85.2345 33.8558 85.8486 33.8558 86.6062Z" fill="#A0CBE4"/>
<path d="M37.9709 87.9779C38.7285 87.9779 39.3426 87.3638 39.3426 86.6062C39.3426 85.8486 38.7285 85.2345 37.9709 85.2345C37.2133 85.2345 36.5992 85.8486 36.5992 86.6062C36.5992 87.3638 37.2133 87.9779 37.9709 87.9779Z" fill="#A0CBE4"/>
<path d="M44.8293 86.6062C44.8293 87.3638 44.2152 87.9779 43.4576 87.9779C42.7001 87.9779 42.0859 87.3638 42.0859 86.6062C42.0859 85.8486 42.7001 85.2345 43.4576 85.2345C44.2152 85.2345 44.8293 85.8486 44.8293 86.6062Z" fill="#A0CBE4"/>
<path d="M48.9444 87.9779C49.702 87.9779 50.3161 87.3638 50.3161 86.6062C50.3161 85.8486 49.702 85.2345 48.9444 85.2345C48.1868 85.2345 47.5727 85.8486 47.5727 86.6062C47.5727 87.3638 48.1868 87.9779 48.9444 87.9779Z" fill="#A0CBE4"/>
<path d="M55.8028 86.6062C55.8028 87.3638 55.1887 87.9779 54.4311 87.9779C53.6735 87.9779 53.0594 87.3638 53.0594 86.6062C53.0594 85.8486 53.6735 85.2345 54.4311 85.2345C55.1887 85.2345 55.8028 85.8486 55.8028 86.6062Z" fill="#A0CBE4"/>
<path d="M59.9179 87.9779C60.6754 87.9779 61.2895 87.3638 61.2895 86.6062C61.2895 85.8486 60.6754 85.2345 59.9179 85.2345C59.1603 85.2345 58.5462 85.8486 58.5462 86.6062C58.5462 87.3638 59.1603 87.9779 59.9179 87.9779Z" fill="#A0CBE4"/>
<path d="M66.7763 86.6062C66.7763 87.3638 66.1622 87.9779 65.4046 87.9779C64.647 87.9779 64.0329 87.3638 64.0329 86.6062C64.0329 85.8486 64.647 85.2345 65.4046 85.2345C66.1622 85.2345 66.7763 85.8486 66.7763 86.6062Z" fill="#A0CBE4"/>
<path d="M35.2275 93.4646C35.9851 93.4646 36.5992 92.8505 36.5992 92.093C36.5992 91.3354 35.9851 90.7213 35.2275 90.7213C34.4699 90.7213 33.8558 91.3354 33.8558 92.093C33.8558 92.8505 34.4699 93.4646 35.2275 93.4646Z" fill="#A0CBE4"/>
<path d="M42.0859 92.093C42.0859 92.8505 41.4718 93.4646 40.7143 93.4646C39.9567 93.4646 39.3426 92.8505 39.3426 92.093C39.3426 91.3354 39.9567 90.7213 40.7143 90.7213C41.4718 90.7213 42.0859 91.3354 42.0859 92.093Z" fill="#A0CBE4"/>
<path d="M46.201 93.4646C46.9586 93.4646 47.5727 92.8505 47.5727 92.093C47.5727 91.3354 46.9586 90.7213 46.201 90.7213C45.4434 90.7213 44.8293 91.3354 44.8293 92.093C44.8293 92.8505 45.4434 93.4646 46.201 93.4646Z" fill="#A0CBE4"/>
<path d="M53.0594 92.093C53.0594 92.8505 52.4453 93.4646 51.6877 93.4646C50.9302 93.4646 50.3161 92.8505 50.3161 92.093C50.3161 91.3354 50.9302 90.7213 51.6877 90.7213C52.4453 90.7213 53.0594 91.3354 53.0594 92.093Z" fill="#A0CBE4"/>
<path d="M57.1745 93.4646C57.9321 93.4646 58.5462 92.8505 58.5462 92.093C58.5462 91.3354 57.9321 90.7213 57.1745 90.7213C56.4169 90.7213 55.8028 91.3354 55.8028 92.093C55.8028 92.8505 56.4169 93.4646 57.1745 93.4646Z" fill="#A0CBE4"/>
<path d="M64.0329 92.093C64.0329 92.8505 63.4188 93.4646 62.6612 93.4646C61.9036 93.4646 61.2895 92.8505 61.2895 92.093C61.2895 91.3354 61.9036 90.7213 62.6612 90.7213C63.4188 90.7213 64.0329 91.3354 64.0329 92.093Z" fill="#A0CBE4"/>
<path d="M43.4576 98.9514C44.2152 98.9514 44.8293 98.3373 44.8293 97.5797C44.8293 96.8221 44.2152 96.208 43.4576 96.208C42.7001 96.208 42.0859 96.8221 42.0859 97.5797C42.0859 98.3373 42.7001 98.9514 43.4576 98.9514Z" fill="#A0CBE4"/>
<path d="M50.3161 97.5797C50.3161 98.3373 49.702 98.9514 48.9444 98.9514C48.1868 98.9514 47.5727 98.3373 47.5727 97.5797C47.5727 96.8221 48.1868 96.208 48.9444 96.208C49.702 96.208 50.3161 96.8221 50.3161 97.5797Z" fill="#A0CBE4"/>
<path d="M54.4311 98.9514C55.1887 98.9514 55.8028 98.3373 55.8028 97.5797C55.8028 96.8221 55.1887 96.208 54.4311 96.208C53.6735 96.208 53.0594 96.8221 53.0594 97.5797C53.0594 98.3373 53.6735 98.9514 54.4311 98.9514Z" fill="#A0CBE4"/>
</g>
<path id="circle_2" fill-rule="evenodd" clip-rule="evenodd" d="M27.3403 83.177C27.3403 71.6242 36.7058 62.2588 48.2585 62.2588C59.8113 62.2588 69.1767 71.6242 69.1767 83.177C69.1767 94.7298 59.8113 104.095 48.2585 104.095C36.7058 104.095 27.3403 94.7298 27.3403 83.177ZM48.2585 64.3163C37.8421 64.3163 29.3979 72.7606 29.3979 83.177C29.3979 93.5934 37.8421 102.038 48.2585 102.038C58.675 102.038 67.1192 93.5934 67.1192 83.177C67.1192 72.7606 58.675 64.3163 48.2585 64.3163Z" fill="#49A1D3"/>
</g>
<g id="circle-top">
<g id="pattern_3">
<path d="M50.2138 22.9508L65.6185 38.3556L66.5884 37.3856L51.1837 21.9809L50.2138 22.9508Z" fill="white"/>
<path d="M37.4829 21.1933L66.9979 50.7084L67.9678 49.7385L38.4528 20.2234L37.4829 21.1933Z" fill="white"/>
<path d="M28.9528 23.6369L65.6058 60.2898L66.5757 59.3199L29.9227 22.6669L28.9528 23.6369Z" fill="white"/>
<path d="M63.4625 63.6333L25.1377 25.3085L26.1076 24.3385L64.4324 62.6634L63.4625 63.6333Z" fill="white"/>
<path d="M22.0944 27.7519L61.4907 67.1482L62.4606 66.1783L23.0643 26.782L22.0944 27.7519Z" fill="white"/>
<path d="M58.5298 69.6741L19.3936 30.5381L20.3635 29.5682L59.4997 68.7041L58.5298 69.6741Z" fill="white"/>
<path d="M16.9934 33.6247L54.972 71.603L55.9419 70.6331L17.9634 32.6548L16.9934 33.6247Z" fill="white"/>
<path d="M51.5856 73.7034L14.9359 37.0539L15.9058 36.084L52.5556 72.7335L51.5856 73.7034Z" fill="white"/>
<path d="M13.396 41.0007L47.5563 75.1608L48.5262 74.1909L14.3659 40.0308L13.396 41.0007Z" fill="white"/>
<path d="M42.9697 76.061L12.5783 45.6696L13.5482 44.6996L43.9397 75.091L42.9697 76.061Z" fill="white"/>
<path d="M12.9212 52.1851L36.7971 76.061L37.7671 75.091L13.8912 51.2151L12.9212 52.1851Z" fill="white"/>
<path d="M14.9359 59.6865L28.9528 73.7034L29.9227 72.7335L15.9058 58.7165L14.9359 59.6865Z" fill="white"/>
<path d="M66.5884 55.7857L33.1963 22.3936L34.1663 21.4237L67.5584 54.8158L66.5884 55.7857Z" fill="white"/>
<path d="M67.7062 45.93L42.9697 21.1934L43.9397 20.2235L68.4157 44.6996L67.7062 45.93Z" fill="white"/>
</g>
<path id="Intersect" d="M59.4187 66.9866C56.5015 65.2259 53.0391 64.2059 49.3258 64.2059C49.123 64.2059 48.921 64.209 48.7198 64.215C48.9259 67.1654 49.8613 69.9265 51.3565 72.3375C54.4465 71.1465 57.1945 69.3044 59.4187 66.9866Z" fill="#007DC5"/>
<path id="circle_3" fill-rule="evenodd" clip-rule="evenodd" d="M12.2518 48.1454C12.2518 32.426 24.9948 19.6829 40.7142 19.6829C56.4336 19.6829 69.1767 32.426 69.1767 48.1454C69.1767 63.8648 56.4336 76.6079 40.7142 76.6079C24.9948 76.6079 12.2518 63.8648 12.2518 48.1454ZM40.7142 21.7405C26.1312 21.7405 14.3093 33.5623 14.3093 48.1454C14.3093 62.7284 26.1312 74.5503 40.7142 74.5503C55.2973 74.5503 67.1192 62.7284 67.1192 48.1454C67.1192 33.5623 55.2973 21.7405 40.7142 21.7405Z" fill="white"/>
</g>
</g>
</g>
</g>
</svg>
